<?xml version="1.0" encoding="UTF-8"?>
<svg version="1.1" xmlns="http://www.w3.org/2000/svg" width="64" height="64">
<path d="M0 0 C21.12 0 42.24 0 64 0 C64 21.12 64 42.24 64 64 C42.88 64 21.76 64 0 64 C0 42.88 0 21.76 0 0 Z " fill="#182554" transform="translate(0,0)"/>
<path d="M0 0 C3.36937448 0.57991413 4.96552427 1.60349679 7.3125 4.0625 C7.90804688 4.68382812 8.50359375 5.30515625 9.1171875 5.9453125 C12.14001957 9.24408774 15.09332897 12.59857646 18 16 C17.67 15.34 17.34 14.68 17 14 C16.70722131 10.29146987 17.3164684 8.25482776 19 5 C18.67 4.34 18.34 3.68 18 3 C19.32 3 20.64 3 22 3 C22 4.32 22 5.64 22 7 C22.99 7 23.98 7 25 7 C24.67 7.99 24.34 8.98 24 10 C23.67 9.67 23.34 9.34 23 9 C22.58168596 12.28999282 22.58168596 12.28999282 23 16 C24.62553283 17.70680947 26.29115995 19.37660195 28 21 C28.3125 23.8125 28.3125 23.8125 28 26 C28.66 26.33 29.32 26.66 30 27 C25.51023509 28.75210338 21.81989758 29.37076135 17 29 C15 27 15 27 14.875 23.875 C14.91625 22.92625 14.9575 21.9775 15 21 C15.33 21 15.66 21 16 21 C16.33 22.65 16.66 24.3 17 26 C18.98 26.33 20.96 26.66 23 27 C21.56588544 23.69050485 19.79026636 21.60335115 17.1875 19.125 C13.87478645 15.90279775 10.88535982 12.60669977 8 9 C7.67 13.29 7.34 17.58 7 22 C6.34 22 5.68 22 5 22 C4.96132813 20.12054688 4.96132813 20.12054688 4.921875 18.203125 C4.86558831 16.55204877 4.8082411 14.90100845 4.75 13.25 C4.73582031 12.425 4.72164062 11.6 4.70703125 10.75 C4.53289188 5.6888713 4.53289188 5.6888713 1.953125 1.421875 C1.30859375 0.95265625 0.6640625 0.4834375 0 0 Z " fill="#C6CAD5" transform="translate(14,18)"/>
<path d="M0 0 C1.17825358 0.90172468 2.34231577 1.82201502 3.5 2.75 C4.1496875 3.26046875 4.799375 3.7709375 5.46875 4.296875 C7 6 7 6 7 10 C4.03 9.505 4.03 9.505 1 9 C-1.125 2.25 -1.125 2.25 0 0 Z " fill="#2A3762" transform="translate(30,36)"/>
<path d="M0 0 C1.32 0 2.64 0 4 0 C4 1.32 4 2.64 4 4 C4.99 4 5.98 4 7 4 C6.67 4.99 6.34 5.98 6 7 C5.67 6.67 5.34 6.34 5 6 C4.67 7.98 4.34 9.96 4 12 C0.25721785 10.5511811 0.25721785 10.5511811 -0.875 8.125 C-1.02794883 5.5248699 -0.206767 4.26268813 1 2 C0.67 1.34 0.34 0.68 0 0 Z " fill="#989EB3" transform="translate(32,21)"/>
<path d="M0 0 C1.0828125 1.11375 1.0828125 1.11375 2.1875 2.25 C4.85497089 5.0185047 4.85497089 5.0185047 7.75 6.875 C10.76014273 9.71791257 10.62077451 11.9802098 11 16 C11.66 16.33 12.32 16.66 13 17 C11.35 17 9.7 17 8 17 C8 15.02 8 13.04 8 11 C7.38125 10.690625 6.7625 10.38125 6.125 10.0625 C2.68417309 8.34208655 1.45965427 7.64913567 0 4 C0 2.68 0 1.36 0 0 Z " fill="#D4D7E0" transform="translate(31,28)"/>
<path d="M0 0 C1.9375 0.6875 1.9375 0.6875 4 2 C4.86029934 4.79597286 5 7.07171074 5 10 C1.98675805 11.50662097 -0.68286377 11.17770373 -4 11 C-6 9 -6 9 -6.125 5.875 C-6.08375 4.92625 -6.0425 3.9775 -6 3 C-5.67 3 -5.34 3 -5 3 C-4.67 4.65 -4.34 6.3 -4 8 C-1.03 8.495 -1.03 8.495 2 9 C1.41196203 5.97580475 0.77321882 2.98241547 0 0 Z " fill="#7E85A0" transform="translate(35,36)"/>
<path d="M0 0 C3.53586843 0.57760323 5.20958289 1.8272067 7.6875 4.375 C8.28949219 4.98085938 8.89148438 5.58671875 9.51171875 6.2109375 C11 8 11 8 12 11 C10.68 10.34 9.36 9.68 8 9 C8 8.34 8 7.68 8 7 C7.34 7 6.68 7 6 7 C1.34090909 2.68181818 1.34090909 2.68181818 0 0 Z " fill="#D7D9E1" transform="translate(14,18)"/>
</svg>
